<?xml version="1.0" encoding="iso-8859-1"?>
<!-- Uploaded to: SVG Repo, www.svgrepo.com, Generator: SVG Repo Mixer Tools -->
<svg version="1.1" id="Layer_1" xmlns="http://www.w3.org/2000/svg" xmlns:xlink="http://www.w3.org/1999/xlink" 
	 viewBox="0 0 496 496" xml:space="preserve">
<rect y="288" style="fill:#009AAF;" width="496" height="200"/>
<g>
	<polyline style="fill:#006884;" points="0,288 496,288 496,488 	"/>
	<path style="fill:#006884;" d="M416,123.2c0,45.6-58.4,84.8-103.2,84.8H183.2C138.4,208,80,168.8,80,123.2v-36
		C80,41.6,138.4,8,183.2,8H312c45.6,0,104,33.6,104,79.2V123.2z"/>
</g>
<path style="fill:#07BED6;" d="M496,296.8c0,12.8-11.2,23.2-24,23.2H24c-12.8,0-24-10.4-24-23.2V86.4C0,73.6,11.2,64,24,64h448
	c12.8,0,24,9.6,24,22.4V296.8z"/>
<path style="fill:#009AAF;" d="M0,86.4C0,73.6,11.2,64,24,64h448c12.8,0,24,9.6,24,22.4v210.4c0,12.8-11.2,23.2-24,23.2"/>
<path style="fill:#D6D5CC;" d="M456,260.8c0,8.8-4,11.2-12,11.2H52c-8,0-12-3.2-12-11.2V123.2c0-8,4-19.2,12-19.2h392
	c8.8,0,12,10.4,12,19.2V260.8z"/>
<path style="fill:#F4F2E4;" d="M456,259.2c0,8.8-4,12.8-12,12.8H52c-8,0-12-4-12-12.8V146.4c0-9.6,4-18.4,12-18.4h392
	c8.8,0,12,8.8,12,18.4V259.2z"/>
<g>
	<path style="fill:#D6D5CC;" d="M95.2,260.8c-0.8,0-1.6,0-2.4,0c-1.6,0-2.4-0.8-4-0.8c-1.6-0.8-2.4-1.6-3.2-2.4
		c-0.8-0.8-1.6-2.4-1.6-4.8V252v-0.8c0.8-5.6,1.6-11.2,4-16.8c1.6-5.6,4-11.2,7.2-17.6s5.6-12,9.6-17.6c3.2-6.4,7.2-12,11.2-18.4
		c-3.2-0.8-5.6-0.8-7.2-1.6s-3.2-0.8-4.8-1.6c-2.4-1.6-3.2-1.6-4.8-1.6c-0.8,0-2.4,0-4,0s-3.2,0-4.8,0c-1.6,0-2.4,0-3.2,0.8
		c-0.8,0.8-1.6,0.8-2.4,1.6s-1.6,1.6-2.4,3.2c-1.6,3.2-3.2,4.8-4,6.4c-0.8,1.6-2.4,2.4-3.2,2.4c-0.8,0-1.6,0-2.4-0.8
		S72,188,72,186.4c0-0.8,0-1.6,0-1.6c0-0.8,0-1.6,0-2.4c0.8-5.6,1.6-9.6,3.2-12.8s3.2-5.6,4.8-8c1.6-1.6,4-3.2,6.4-4s4-1.6,6.4-1.6
		s4.8,0,6.4,0.8c2.4,0.8,4.8,0.8,6.4,1.6c2.4,0.8,4.8,1.6,7.2,1.6c2.4,0.8,4.8,0.8,7.2,0.8c1.6,0,2.4,0,3.2,0s1.6,0,2.4,0
		c2.4,0,4,0,5.6-0.8c1.6,0,2.4,0,3.2-0.8c0.8,0,1.6,0,1.6-0.8h0.8c2.4,0,4,0.8,4.8,1.6c0.8,1.6,1.6,3.2,1.6,5.6c0,1.6,0,3.2,0,5.6
		c0,0-0.8,0.8-1.6,1.6s-1.6,1.6-3.2,2.4c-0.8,0.8-2.4,1.6-3.2,2.4c-0.8,0.8-2.4,1.6-2.4,1.6c-3.2,5.6-6.4,11.2-8.8,16.8
		c-2.4,5.6-4.8,11.2-6.4,16.8s-3.2,12-4.8,17.6c-1.6,6.4-3.2,12.8-4.8,20c0,1.6-0.8,3.2-2.4,4c-0.8,0.8-2.4,1.6-4,2.4
		s-3.2,0.8-4.8,1.6C97.6,260.8,96.8,260.8,95.2,260.8z"/>
	<path style="fill:#D6D5CC;" d="M108.8,189.6c-1.6,3.2-4,5.6-5.6,8.8c-3.2,6.4-6.4,12-9.6,17.6s-4.8,12-7.2,17.6
		c-1.6,5.6-3.2,11.2-4,16.8v0.8v0.8c0,2.4,0.8,4,1.6,4.8c0.8,0.8,2.4,2.4,3.2,2.4c1.6,0.8,2.4,0.8,4,0.8s2.4,0,2.4,0
		c1.6,0,2.4,0,4-0.8c1.6,0,3.2-0.8,4.8-1.6s2.4-1.6,4-2.4c0.8-0.8,1.6-2.4,2.4-4c1.6-7.2,3.2-13.6,4.8-20c1.6-6.4,3.2-12,4.8-17.6
		c1.6-5.6,4-11.2,6.4-16.8s5.6-11.2,8.8-16.8l0.8-0.8L108.8,189.6z"/>
	<path style="fill:#D6D5CC;" d="M234.4,260.8c-0.8,0-1.6,0-2.4,0c-1.6,0-2.4-0.8-4-0.8c-1.6-0.8-2.4-1.6-3.2-2.4s-1.6-2.4-1.6-4.8
		V252v-0.8c0.8-5.6,1.6-11.2,4-16.8c1.6-5.6,4-11.2,7.2-17.6s5.6-12,9.6-17.6c3.2-6.4,7.2-12,11.2-18.4c-3.2-0.8-5.6-0.8-7.2-1.6
		s-3.2-0.8-4.8-1.6c-2.4-1.6-4-1.6-4.8-1.6s-2.4,0-4,0s-3.2,0-4.8,0s-2.4,0-3.2,0.8s-1.6,0.8-2.4,1.6c-0.8,0.8-1.6,1.6-2.4,3.2
		c-1.6,3.2-3.2,4.8-4,6.4c-0.8,1.6-2.4,2.4-3.2,2.4s-1.6,0-2.4-0.8s-0.8-1.6-0.8-3.2c0-0.8,0-1.6,0-1.6c0-0.8,0-1.6,0-2.4
		c0.8-5.6,1.6-9.6,3.2-12.8c1.6-3.2,3.2-5.6,4.8-8c1.6-1.6,4-3.2,6.4-4s4-1.6,6.4-1.6s4.8,0,6.4,0.8c2.4,0.8,4.8,0.8,6.4,1.6
		c2.4,0.8,4.8,1.6,7.2,1.6c2.4,0.8,4.8,0.8,7.2,0.8c1.6,0,2.4,0,3.2,0c0.8,0,1.6,0,2.4,0c2.4,0,4,0,5.6-0.8c1.6,0,2.4,0,3.2-0.8
		c0.8,0,1.6,0,1.6-0.8h0.8c2.4,0,4,0.8,4.8,1.6c0.8,1.6,1.6,3.2,1.6,5.6c0,1.6,0,3.2,0,5.6c0,0-0.8,0.8-1.6,1.6
		c-0.8,0.8-1.6,1.6-3.2,2.4c-0.8,0.8-2.4,1.6-3.2,2.4c-0.8,0.8-2.4,1.6-2.4,1.6c-3.2,5.6-6.4,11.2-8.8,16.8s-4.8,11.2-6.4,16.8
		s-3.2,12-4.8,17.6c-1.6,6.4-3.2,12.8-4.8,20c0,1.6-0.8,3.2-2.4,4c-0.8,0.8-2.4,1.6-4,2.4s-3.2,0.8-4.8,1.6
		C236.8,260.8,235.2,260.8,234.4,260.8z"/>
	<path style="fill:#D6D5CC;" d="M248,189.6c-1.6,3.2-4,5.6-5.6,8.8c-3.2,6.4-6.4,12-9.6,17.6s-4.8,12-7.2,17.6
		c-1.6,5.6-3.2,11.2-4,16.8v0.8v0.8c0,2.4,0.8,4,1.6,4.8s2.4,2.4,3.2,2.4c1.6,0.8,2.4,0.8,4,0.8s2.4,0,2.4,0c1.6,0,2.4,0,4-0.8
		c1.6,0,3.2-0.8,4.8-1.6s2.4-1.6,4-2.4c0.8-0.8,1.6-2.4,2.4-4c1.6-7.2,3.2-13.6,4.8-20s3.2-12,4.8-17.6c1.6-5.6,4-11.2,6.4-16.8
		s5.6-11.2,8.8-16.8l0.8-0.8L248,189.6z"/>
	<path style="fill:#D6D5CC;" d="M372.8,260.8c-0.8,0-1.6,0-2.4,0s-2.4-0.8-4-0.8c-1.6-0.8-2.4-1.6-3.2-2.4c-0.8-0.8-1.6-2.4-1.6-4.8
		V252v-0.8c0.8-5.6,1.6-11.2,4-16.8c1.6-5.6,4-11.2,7.2-17.6s5.6-12,9.6-17.6c3.2-6.4,7.2-12,11.2-18.4c-3.2-0.8-5.6-0.8-7.2-1.6
		s-3.2-0.8-4.8-1.6c-1.6-1.6-3.2-1.6-4-1.6s-2.4,0-4,0s-3.2,0-4.8,0c-1.6,0-2.4,0-3.2,0.8c-0.8,0.8-1.6,0.8-2.4,1.6
		s-1.6,1.6-2.4,3.2c-1.6,3.2-3.2,4.8-4,6.4c-0.8,1.6-2.4,2.4-3.2,2.4c-0.8,0-1.6,0-2.4-0.8s-0.8-1.6-0.8-3.2c0-0.8,0-1.6,0-1.6
		c0-0.8,0-1.6,0-2.4c0.8-5.6,1.6-9.6,3.2-12.8s3.2-5.6,4.8-8c1.6-1.6,4-3.2,6.4-4s4-1.6,6.4-1.6s4.8,0,6.4,0.8
		c2.4,0.8,4.8,0.8,6.4,1.6c2.4,0.8,4.8,1.6,7.2,1.6c2.4,0.8,4.8,0.8,7.2,0.8c1.6,0,2.4,0,3.2,0c0.8,0,1.6,0,2.4,0c2.4,0,4,0,5.6-0.8
		c1.6,0,2.4,0,3.2-0.8c0.8,0,1.6,0,1.6-0.8s0.8,0,0.8,0c2.4,0,4,0.8,4.8,1.6c0.8,1.6,1.6,3.2,1.6,5.6c0,1.6,0,3.2,0,5.6
		c0,0-0.8,0.8-1.6,1.6c-0.8,0.8-1.6,1.6-3.2,2.4c-0.8,0.8-2.4,1.6-3.2,2.4c-0.8,0.8-2.4,1.6-2.4,1.6c-3.2,5.6-6.4,11.2-8.8,16.8
		s-4.8,11.2-6.4,16.8s-3.2,12-4.8,17.6c-1.6,6.4-3.2,12.8-4.8,20c0,1.6-0.8,3.2-2.4,4c-0.8,0.8-2.4,1.6-4,2.4s-3.2,0.8-4.8,1.6
		C376,260.8,374.4,260.8,372.8,260.8z"/>
	<path style="fill:#D6D5CC;" d="M386.4,189.6c-1.6,3.2-4,5.6-5.6,8.8c-3.2,6.4-6.4,12-9.6,17.6s-4.8,12-7.2,17.6
		c-1.6,5.6-3.2,11.2-4,16.8v0.8v0.8c0,2.4,0.8,4,1.6,4.8c0.8,0.8,2.4,2.4,3.2,2.4c1.6,0.8,2.4,0.8,4,0.8s2.4,0,2.4,0
		c1.6,0,2.4,0,4-0.8c1.6,0,3.2-0.8,4.8-1.6s2.4-1.6,4-2.4c0.8-0.8,1.6-2.4,2.4-4c1.6-7.2,3.2-13.6,4.8-20c1.6-6.4,3.2-12,4.8-17.6
		c1.6-5.6,4-11.2,6.4-16.8s5.6-11.2,8.8-16.8l0.8-0.8L386.4,189.6z"/>
</g>
<path style="fill:#ED6E0F;" d="M95.2,246.4c-0.8,0-1.6,0-2.4,0c-1.6,0-2.4-0.8-4-0.8c-1.6-0.8-2.4-1.6-3.2-2.4
	c-0.8-0.8-1.6-2.4-1.6-4.8v-0.8v-0.8c0.8-5.6,1.6-11.2,4-16.8c1.6-5.6,4-11.2,7.2-17.6s5.6-12,9.6-17.6c3.2-6.4,7.2-12,11.2-18.4
	c-3.2-0.8-5.6-0.8-7.2-1.6s-3.2-0.8-4.8-1.6c-1.6-0.8-2.4-0.8-4-0.8c-0.8,0-2.4,0-4,0s-3.2,0-4.8,0c-1.6,0-2.4,0-3.2,0.8
	c-0.8,0.8-1.6,0.8-2.4,1.6s-1.6,1.6-2.4,3.2c-1.6,3.2-3.2,4.8-4,6.4c-0.8,1.6-2.4,2.4-3.2,2.4c-0.8,0-1.6,0-2.4-0.8
	s-0.8-1.6-0.8-3.2c0-0.8,0-1.6,0-1.6c0-0.8,0-1.6,0-2.4c0.8-5.6,1.6-9.6,3.2-12.8s3.2-5.6,4.8-8c1.6-1.6,4-3.2,6.4-4s4-1.6,6.4-1.6
	s4.8,0,6.4,0.8c2.4,0.8,4.8,0.8,6.4,1.6c2.4,0.8,4.8,1.6,7.2,1.6c2.4,0.8,4.8,0.8,7.2,0.8c1.6,0,2.4,0,3.2,0s1.6,0,2.4,0
	c2.4,0,4,0,5.6-0.8c1.6,0,2.4,0,3.2-0.8c0.8,0,1.6,0,1.6-0.8h0.8c2.4,0,4,0.8,4.8,1.6c0.8,1.6,1.6,3.2,1.6,5.6c0,1.6,0,3.2,0,5.6
	c0,0-0.8,0.8-1.6,1.6s-1.6,1.6-3.2,2.4c-0.8,0.8-2.4,1.6-3.2,2.4c-0.8,0.8-2.4,1.6-2.4,1.6c-3.2,5.6-6.4,11.2-8.8,16.8
	c-2.4,5.6-4.8,11.2-6.4,16.8s-3.2,12-4.8,17.6c-1.6,6.4-3.2,12.8-4.8,20c0,1.6-0.8,3.2-2.4,4c-0.8,0.8-2.4,1.6-4,2.4
	s-3.2,0.8-4.8,1.6C97.6,245.6,96.8,246.4,95.2,246.4z"/>
<path style="fill:#C65202;" d="M108.8,175.2c-1.6,3.2-4,5.6-5.6,8.8c-3.2,6.4-6.4,12-9.6,17.6s-4.8,12-7.2,17.6
	c-1.6,5.6-3.2,11.2-4,16.8v0.8v0.8c0,2.4,0.8,4,1.6,4.8c0.8,0.8,2.4,2.4,3.2,2.4c1.6,0.8,2.4,0.8,4,0.8s2.4,0,2.4,0
	c1.6,0,2.4,0,4-0.8c1.6,0,3.2-0.8,4.8-1.6s2.4-1.6,4-2.4c0.8-0.8,1.6-2.4,2.4-4c1.6-7.2,3.2-13.6,4.8-20c1.6-6.4,3.2-12,4.8-17.6
	c1.6-5.6,4-11.2,6.4-16.8s5.6-11.2,8.8-16.8l0.8-0.8L108.8,175.2z"/>
<path style="fill:#ED6E0F;" d="M234.4,246.4c-0.8,0-1.6,0-2.4,0c-1.6,0-2.4-0.8-4-0.8c-1.6-0.8-2.4-1.6-3.2-2.4
	c-0.8-0.8-1.6-2.4-1.6-4.8v-0.8v-0.8c0.8-5.6,1.6-11.2,4-16.8c1.6-5.6,4-11.2,7.2-17.6s5.6-12,9.6-17.6c3.2-6.4,7.2-12,11.2-18.4
	c-3.2-0.8-5.6-0.8-7.2-1.6s-3.2-0.8-4.8-1.6s-2.4-0.8-4-0.8c-0.8,0-2.4,0-4,0s-3.2,0-4.8,0s-2.4,0-3.2,0.8s-1.6,0.8-2.4,1.6
	c-0.8,0.8-1.6,1.6-2.4,3.2c-1.6,3.2-3.2,4.8-4,6.4c-1.6,0.8-2.4,1.6-3.2,1.6s-1.6,0-2.4-0.8s-0.8-1.6-0.8-3.2c0-0.8,0-1.6,0-1.6
	c0-0.8,0-1.6,0-2.4c0.8-5.6,1.6-9.6,3.2-12.8c1.6-3.2,3.2-5.6,4.8-8c1.6-1.6,4-3.2,6.4-4s4-1.6,6.4-1.6s4.8,0,6.4,0.8
	c2.4,0.8,4.8,0.8,6.4,1.6c2.4,0.8,4.8,1.6,7.2,1.6c2.4,0.8,4.8,0.8,7.2,0.8c1.6,0,2.4,0,3.2,0c0.8,0,1.6,0,2.4,0c2.4,0,4,0,5.6-0.8
	c1.6,0,2.4,0,3.2-0.8c0.8,0,1.6,0,1.6-0.8h0.8c2.4,0,4,0.8,4.8,1.6c0.8,1.6,1.6,3.2,1.6,5.6c0,1.6,0,3.2,0,5.6c0,0-0.8,0.8-1.6,1.6
	c-0.8,0.8-1.6,1.6-3.2,2.4c-0.8,0.8-2.4,1.6-3.2,2.4c-0.8,0.8-2.4,1.6-2.4,1.6c-3.2,5.6-6.4,11.2-8.8,16.8s-4.8,11.2-6.4,16.8
	s-3.2,12-4.8,17.6c-1.6,6.4-3.2,12.8-4.8,20c0,1.6-0.8,3.2-2.4,4c-0.8,0.8-2.4,1.6-4,2.4s-3.2,0.8-4.8,1.6
	C236.8,245.6,235.2,246.4,234.4,246.4z"/>
<path style="fill:#C65202;" d="M248,175.2c-1.6,3.2-4,5.6-5.6,8.8c-3.2,6.4-6.4,12-9.6,17.6s-4.8,12-7.2,17.6
	c-1.6,5.6-3.2,11.2-4,16.8v0.8v0.8c0,2.4,0.8,4,1.6,4.8s2.4,2.4,3.2,2.4c1.6,0.8,2.4,0.8,4,0.8s2.4,0,2.4,0c1.6,0,2.4,0,4-0.8
	c1.6,0,3.2-0.8,4.8-1.6s2.4-1.6,4-2.4c0.8-0.8,1.6-2.4,2.4-4c1.6-7.2,3.2-13.6,4.8-20s3.2-12,4.8-17.6c1.6-5.6,4-11.2,6.4-16.8
	s5.6-11.2,8.8-16.8l0.8-0.8L248,175.2z"/>
<path style="fill:#ED6E0F;" d="M372.8,246.4c-0.8,0-1.6,0-2.4,0s-2.4-0.8-4-0.8c-1.6-0.8-2.4-1.6-3.2-2.4c-0.8-0.8-1.6-2.4-1.6-4.8
	v-0.8v-0.8c0.8-5.6,1.6-11.2,4-16.8c1.6-5.6,4-11.2,7.2-17.6s5.6-12,9.6-17.6c3.2-6.4,7.2-12,11.2-18.4c-3.2-0.8-5.6-0.8-7.2-1.6
	s-3.2-0.8-4.8-1.6c-1.6-0.8-2.4-0.8-4-0.8s-2.4,0-4,0s-3.2,0-4.8,0c-1.6,0-2.4,0-3.2,0.8c-0.8,0.8-1.6,0.8-2.4,1.6s-1.6,1.6-2.4,3.2
	c-1.6,3.2-3.2,4.8-4,6.4c-0.8,1.6-2.4,2.4-3.2,2.4c-0.8,0-1.6,0-2.4-0.8s-0.8-1.6-0.8-3.2c0-0.8,0-1.6,0-1.6c0-0.8,0-1.6,0-2.4
	c0.8-5.6,1.6-9.6,3.2-12.8s3.2-5.6,4.8-8c1.6-1.6,4-3.2,6.4-4s4-1.6,6.4-1.6s4.8,0,6.4,0.8c2.4,0.8,4.8,0.8,6.4,1.6
	c2.4,0.8,4.8,1.6,7.2,1.6c2.4,0.8,4.8,0.8,7.2,0.8c1.6,0,2.4,0,3.2,0c0.8,0,1.6,0,2.4,0c2.4,0,4,0,5.6-0.8c1.6,0,2.4,0,3.2-0.8
	c0.8,0,1.6,0,1.6-0.8s0.8,0,0.8,0c2.4,0,4,0.8,4.8,1.6c0.8,1.6,1.6,3.2,1.6,5.6c0,1.6,0,3.2,0,5.6c0,0-0.8,0.8-1.6,1.6
	c-0.8,0.8-1.6,1.6-3.2,2.4c-0.8,0.8-2.4,1.6-3.2,2.4c-0.8,0.8-2.4,1.6-2.4,1.6c-3.2,5.6-6.4,11.2-8.8,16.8s-4.8,11.2-6.4,16.8
	s-3.2,12-4.8,17.6c-1.6,6.4-3.2,12.8-4.8,20c0,1.6-0.8,3.2-2.4,4c-0.8,0.8-2.4,1.6-4,2.4s-3.2,0.8-4.8,1.6
	C376,245.6,374.4,246.4,372.8,246.4z"/>
<path style="fill:#C65202;" d="M386.4,175.2c-1.6,3.2-4,5.6-5.6,8.8c-3.2,6.4-6.4,12-9.6,17.6s-4.8,12-7.2,17.6
	c-1.6,5.6-3.2,11.2-4,16.8v0.8v0.8c0,2.4,0.8,4,1.6,4.8c0.8,0.8,2.4,2.4,3.2,2.4c1.6,0.8,2.4,0.8,4,0.8s2.4,0,2.4,0
	c1.6,0,2.4,0,4-0.8c1.6,0,3.2-0.8,4.8-1.6s2.4-1.6,4-2.4c0.8-0.8,1.6-2.4,2.4-4c1.6-7.2,3.2-13.6,4.8-20c1.6-6.4,3.2-12,4.8-17.6
	c1.6-5.6,4-11.2,6.4-16.8s5.6-11.2,8.8-16.8l0.8-0.8L386.4,175.2z"/>
<g>
	<path style="fill:#009AAF;" d="M184,286.4c0,4-4,7.2-8,7.2l0,0c-4,0-8-3.2-8-7.2V104c0-4,4-7.2,8-7.2l0,0c4,0,8,3.2,8,7.2V286.4z"
		/>
	<path style="fill:#009AAF;" d="M328,286.4c0,4-4,7.2-8,7.2l0,0c-4,0-8-3.2-8-7.2V104c0-4,4-7.2,8-7.2l0,0c4,0,8,3.2,8,7.2V286.4z"
		/>
	
		<ellipse transform="matrix(-0.4328 -0.9015 0.9015 -0.4328 178.8539 178.3062)" style="fill:#009AAF;" cx="145.521" cy="32.887" rx="8.8" ry="37.6"/>
</g>
<rect x="232" y="424" style="fill:#4C5254;" width="32" height="64"/>
<polyline style="fill:#202D2A;" points="232,424 264,424 264,480 "/>
<circle style="fill:#EA1F0A;" cx="248" cy="346.4" r="64.8"/>
<ellipse transform="matrix(-0.7073 -0.7069 0.7069 -0.7073 153.5027 683.0189)" style="fill:#EF683F;" cx="218.153" cy="309.731" rx="11.2" ry="23.2"/>
<path style="fill:#AA2011;" d="M293.6,300.8c25.6,25.6,25.6,66.4,0,91.2c-25.6,25.6-66.4,25.6-91.2,0"/>
<path style="fill:#F9B843;" d="M290.4,416c0,8-6.4,16-13.6,16H220c-7.2,0-13.6-8-13.6-16l0,0c0-7.2,6.4-16,13.6-16h56.8
	C284,400,290.4,408.8,290.4,416L290.4,416z"/>
<path style="fill:#E88813;" d="M290.4,417.6L290.4,417.6c0,8-6.4,14.4-13.6,14.4H220c-7.2,0-13.6-6.4-13.6-14.4l0,0"/>
<g>
	<circle style="fill:#006884;" cx="50.4" cy="362.4" r="12.8"/>
	<circle style="fill:#006884;" cx="50.4" cy="407.2" r="12.8"/>
	<circle style="fill:#006884;" cx="50.4" cy="452" r="12.8"/>
</g>
<g>
	<circle style="fill:#009AAF;" cx="445.6" cy="362.4" r="12.8"/>
	<circle style="fill:#009AAF;" cx="445.6" cy="407.2" r="12.8"/>
	<circle style="fill:#009AAF;" cx="445.6" cy="452" r="12.8"/>
</g>
</svg>